<?xml version="1.0" encoding="UTF-8" standalone="no"?>
<!DOCTYPE svg PUBLIC "-//W3C//DTD SVG 1.1//EN"
 "http://www.w3.org/Graphics/SVG/1.1/DTD/svg11.dtd">
<!-- Generated by graphviz version 12.2.1 (20241206.2353)
 -->
<!-- Title: G Pages: 1 -->
<svg width="518pt" height="316pt"
 viewBox="0.00 0.00 517.80 315.51" xmlns="http://www.w3.org/2000/svg" xmlns:xlink="http://www.w3.org/1999/xlink">
<g id="graph0" class="graph" transform="scale(1 1) rotate(0) translate(4 311.51)">
<title>G</title><style>.edge>path:hover{stroke-width:8}</style>
<polygon fill="white" stroke="none" points="-4,4 -4,-311.51 513.8,-311.51 513.8,4 -4,4"/>
<!-- main_py -->
<g id="node1" class="node">
<title>main_py</title><style>.edge>path:hover{stroke-width:8}</style>
<ellipse fill="#4b8b4b" stroke="black" cx="300" cy="-18" rx="30.37" ry="18"/>
<text text-anchor="middle" x="300" y="-14.5" font-family="Helvetica,sans-Serif" font-size="10.00" fill="#ffffff">main.py</text>
</g>
<!-- PyQt5 -->
<g id="node2" class="node">
<title>PyQt5</title><style>.edge>path:hover{stroke-width:8}</style>
<ellipse fill="#c24747" stroke="black" cx="27" cy="-284.88" rx="27" ry="18"/>
<text text-anchor="middle" x="27" y="-281.38" font-family="Helvetica,sans-Serif" font-size="10.00" fill="#ffffff">PyQt5</text>
</g>
<!-- PyQt5&#45;&gt;main_py -->
<g id="edge1" class="edge">
<title>PyQt5&#45;&gt;main_py</title><style>.edge>path:hover{stroke-width:8}</style>
<path fill="none" stroke="black" d="M46.14,-271.68C51.51,-268.45 57.4,-265.08 63,-262.25 117.58,-234.66 148.85,-254.51 190,-209.25"/>
<path fill="none" stroke="black" d="M190,-207.25C219.92,-174.35 180.6,-143.23 209,-109 236.77,-75.53 304.13,-116.3 300,-73"/>
<path fill="none" stroke="black" d="M300,-72C299.07,-64.11 298.77,-55.52 298.78,-47.59"/>
<polygon fill="#c24747" stroke="black" points="302.27,-47.82 298.96,-37.76 295.28,-47.69 302.27,-47.82"/>
</g>
<!-- src_gui -->
<g id="node9" class="node">
<title>src_gui</title><style>.edge>path:hover{stroke-width:8}</style>
<ellipse fill="#3d3d8f" stroke="black" cx="245" cy="-131.63" rx="27.21" ry="18"/>
<text text-anchor="middle" x="245" y="-128.13" font-family="Helvetica,sans-Serif" font-size="10.00" fill="#ffffff">src.gui</text>
</g>
<!-- PyQt5&#45;&gt;src_gui -->
<g id="edge2" class="edge">
<title>PyQt5&#45;&gt;src_gui</title><style>.edge>path:hover{stroke-width:8}</style>
<path fill="none" stroke="black" d="M190,-207.25C204.12,-191.72 218.13,-172.65 228.48,-157.67"/>
<polygon fill="#c24747" stroke="black" points="231.13,-159.99 233.86,-149.75 225.34,-156.05 231.13,-159.99"/>
</g>
<!-- PyQt5_QtCore -->
<g id="node3" class="node">
<title>PyQt5_QtCore</title><style>.edge>path:hover{stroke-width:8}</style>
<ellipse fill="#b65353" stroke="black" cx="119" cy="-284.88" rx="47.05" ry="18"/>
<text text-anchor="middle" x="119" y="-281.38" font-family="Helvetica,sans-Serif" font-size="10.00" fill="#ffffff">PyQt5.QtCore</text>
</g>
<!-- PyQt5_QtCore&#45;&gt;src_gui -->
<g id="edge3" class="edge">
<title>PyQt5_QtCore&#45;&gt;src_gui</title><style>.edge>path:hover{stroke-width:8}</style>
<path fill="none" stroke="black" d="M228,-207.25C229.82,-191.58 233.61,-174.39 237.15,-160.46"/>
<polygon fill="#b65353" stroke="black" points="240.45,-161.66 239.63,-151.1 233.69,-159.87 240.45,-161.66"/>
<path fill="none" stroke="black" d="M148,-270.27C179.53,-254.55 225.78,-228.39 228,-209.25"/>
</g>
<!-- PyQt5_QtGui -->
<g id="node4" class="node">
<title>PyQt5_QtGui</title><style>.edge>path:hover{stroke-width:8}</style>
<ellipse fill="#b65353" stroke="black" cx="228" cy="-284.88" rx="43.45" ry="18"/>
<text text-anchor="middle" x="228" y="-281.38" font-family="Helvetica,sans-Serif" font-size="10.00" fill="#ffffff">PyQt5.QtGui</text>
</g>
<!-- PyQt5_QtGui&#45;&gt;src_gui -->
<g id="edge4" class="edge">
<title>PyQt5_QtGui&#45;&gt;src_gui</title><style>.edge>path:hover{stroke-width:8}</style>
<path fill="none" stroke="black" d="M226.87,-266.63C226.15,-251.46 225.73,-228.82 228,-209.25"/>
</g>
<!-- PyQt5_QtWidgets -->
<g id="node5" class="node">
<title>PyQt5_QtWidgets</title><style>.edge>path:hover{stroke-width:8}</style>
<ellipse fill="#c24747" stroke="black" cx="334" cy="-284.88" rx="44.19" ry="22.63"/>
<text text-anchor="middle" x="334" y="-287.38" font-family="Helvetica,sans-Serif" font-size="10.00" fill="#ffffff">PyQt5.</text>
<text text-anchor="middle" x="334" y="-275.38" font-family="Helvetica,sans-Serif" font-size="10.00" fill="#ffffff">QtWidgets</text>
</g>
<!-- PyQt5_QtWidgets&#45;&gt;main_py -->
<g id="edge5" class="edge">
<title>PyQt5_QtWidgets&#45;&gt;main_py</title><style>.edge>path:hover{stroke-width:8}</style>
<path fill="none" stroke="black" d="M334.47,-261.99C334.68,-251.23 334.9,-238.06 335,-226.25 335.14,-210.26 338.32,-205.91 335,-190.25 331.37,-173.13 324.57,-170.85 319,-154.25 307.19,-119.1 302.8,-109.98 300,-73"/>
</g>
<!-- PyQt5_QtWidgets&#45;&gt;src_gui -->
<g id="edge6" class="edge">
<title>PyQt5_QtWidgets&#45;&gt;src_gui</title><style>.edge>path:hover{stroke-width:8}</style>
<path fill="none" stroke="black" d="M301.94,-269C269.97,-253.06 225.87,-227.59 228,-209.25"/>
</g>
<!-- src -->
<g id="node6" class="node">
<title>src</title><style>.edge>path:hover{stroke-width:8}</style>
<ellipse fill="#4747c2" stroke="black" cx="355" cy="-131.63" rx="27" ry="18"/>
<text text-anchor="middle" x="355" y="-128.13" font-family="Helvetica,sans-Serif" font-size="10.00" fill="#ffffff">src</text>
</g>
<!-- src&#45;&gt;main_py -->
<g id="edge7" class="edge">
<title>src&#45;&gt;main_py</title><style>.edge>path:hover{stroke-width:8}</style>
<path fill="none" stroke="black" d="M334.72,-119.41C319.69,-109.48 301.54,-93.41 300,-73"/>
</g>
<!-- src_config -->
<g id="node7" class="node">
<title>src_config</title><style>.edge>path:hover{stroke-width:8}</style>
<ellipse fill="#5353b6" stroke="black" cx="291" cy="-208.25" rx="35.33" ry="18"/>
<text text-anchor="middle" x="291" y="-204.75" font-family="Helvetica,sans-Serif" font-size="10.00" fill="#ffffff">src.config</text>
</g>
<!-- src_config&#45;&gt;src_gui -->
<g id="edge8" class="edge">
<title>src_config&#45;&gt;src_gui</title><style>.edge>path:hover{stroke-width:8}</style>
<path fill="none" stroke="black" d="M280.79,-190.69C274.93,-181.19 267.45,-169.06 260.85,-158.34"/>
<polygon fill="#5353b6" stroke="black" points="263.89,-156.6 255.66,-149.92 257.93,-160.27 263.89,-156.6"/>
</g>
<!-- src_data_manager -->
<g id="node8" class="node">
<title>src_data_manager</title><style>.edge>path:hover{stroke-width:8}</style>
<ellipse fill="#5353b6" stroke="black" cx="455" cy="-131.63" rx="54.8" ry="22.63"/>
<text text-anchor="middle" x="455" y="-134.13" font-family="Helvetica,sans-Serif" font-size="10.00" fill="#ffffff">src.</text>
<text text-anchor="middle" x="455" y="-122.13" font-family="Helvetica,sans-Serif" font-size="10.00" fill="#ffffff">data_manager</text>
</g>
<!-- src_data_manager&#45;&gt;main_py -->
<g id="edge9" class="edge">
<title>src_data_manager&#45;&gt;main_py</title><style>.edge>path:hover{stroke-width:8}</style>
<path fill="none" stroke="black" d="M413.95,-116.37C368.11,-100.31 300.23,-76.03 300,-73"/>
</g>
<!-- src_gui&#45;&gt;main_py -->
<g id="edge10" class="edge">
<title>src_gui&#45;&gt;main_py</title><style>.edge>path:hover{stroke-width:8}</style>
<path fill="none" stroke="black" d="M266.29,-119.81C282.41,-109.92 301.57,-93.69 300,-73"/>
</g>
</g>
</svg>
