<?xml version="1.0" encoding="UTF-8" standalone="no"?>
<!DOCTYPE svg PUBLIC "-//W3C//DTD SVG 1.1//EN"
 "http://www.w3.org/Graphics/SVG/1.1/DTD/svg11.dtd">
<!-- Generated by graphviz version 12.2.1 (20241206.2353)
 -->
<!-- Title: packages_InteractiveDataApp Pages: 1 -->
<svg width="200pt" height="188pt"
 viewBox="0.00 0.00 200.00 188.00" xmlns="http://www.w3.org/2000/svg" xmlns:xlink="http://www.w3.org/1999/xlink">
<g id="graph0" class="graph" transform="scale(1 1) rotate(0) translate(4 184)">
<title>packages_InteractiveDataApp</title>
<polygon fill="white" stroke="none" points="-4,4 -4,-184 196,-184 196,4 -4,4"/>
<!-- src.config -->
<g id="node1" class="node">
<title>src.config</title>
<polygon fill="none" stroke="black" points="192,-180 122,-180 122,-144 192,-144 192,-180"/>
<text text-anchor="middle" x="157" y="-156.95" font-family="Times New Roman,serif" font-size="14.00">src.config</text>
</g>
<!-- src.data_manager -->
<g id="node2" class="node">
<title>src.data_manager</title>
<polygon fill="none" stroke="black" points="112,-108 0,-108 0,-72 112,-72 112,-108"/>
<text text-anchor="middle" x="56" y="-84.95" font-family="Times New Roman,serif" font-size="14.00">src.data_manager</text>
</g>
<!-- src.gui -->
<g id="node3" class="node">
<title>src.gui</title>
<polygon fill="none" stroke="black" points="184,-108 130,-108 130,-72 184,-72 184,-108"/>
<text text-anchor="middle" x="157" y="-84.95" font-family="Times New Roman,serif" font-size="14.00">src.gui</text>
</g>
<!-- src.gui&#45;&gt;src.config -->
<g id="edge1" class="edge">
<title>src.gui&#45;&gt;src.config</title>
<path fill="none" stroke="black" d="M157,-108.3C157,-115.68 157,-124.48 157,-132.75"/>
<polygon fill="black" stroke="black" points="157,-142.68 152.5,-132.68 157,-138.9 157,-132.68 157,-132.68 157,-132.68 157,-138.9 161.5,-132.68 157,-142.68"/>
</g>
<!-- src.main -->
<g id="node4" class="node">
<title>src.main</title>
<polygon fill="none" stroke="black" points="137.62,-36 74.38,-36 74.38,0 137.62,0 137.62,-36"/>
<text text-anchor="middle" x="106" y="-12.95" font-family="Times New Roman,serif" font-size="14.00">src.main</text>
</g>
<!-- src.main&#45;&gt;src.data_manager -->
<g id="edge2" class="edge">
<title>src.main&#45;&gt;src.data_manager</title>
<path fill="none" stroke="black" d="M93.64,-36.3C87.89,-44.36 80.92,-54.11 74.56,-63.02"/>
<polygon fill="black" stroke="black" points="68.93,-70.9 71.08,-60.15 71.12,-67.83 74.74,-62.77 74.74,-62.77 74.74,-62.77 71.12,-67.83 78.4,-65.38 68.93,-70.9"/>
</g>
<!-- src.main&#45;&gt;src.gui -->
<g id="edge3" class="edge">
<title>src.main&#45;&gt;src.gui</title>
<path fill="none" stroke="black" d="M118.61,-36.3C124.47,-44.36 131.58,-54.11 138.07,-63.02"/>
<polygon fill="black" stroke="black" points="143.82,-70.91 134.3,-65.48 141.59,-67.85 137.93,-62.83 137.93,-62.83 137.93,-62.83 141.59,-67.85 141.57,-60.18 143.82,-70.91"/>
</g>
</g>
</svg>
